<?xml version="1.0" encoding="utf-8" ?><svg xmlns="http://www.w3.org/2000/svg" xmlns:xlink="http://www.w3.org/1999/xlink" width="1024" height="1024" viewBox="0 0 1024 1024"><path fill="#E1E1E1" d="M0 0L1024 0L1024 1024L0 1024L0 0ZM593.048 326.1C581.674 330.02 584.723 342.275 597.649 340.481C609.087 336.57 605.394 325.645 593.048 326.1ZM788.349 331.733C787.281 334.445 788.073 388.388 788.098 395.108L803.859 395.194L803.934 331.723C798.739 331.772 793.544 331.776 788.349 331.733ZM389.243 332.305C389.112 353.298 389.539 374.591 389.238 395.501C392.45 395.503 402.342 395.695 405.009 395.326C405.241 374.331 405.286 353.335 405.144 332.339C399.986 332.312 394.363 332.166 389.243 332.305ZM182.172 333.259L169.077 333.344C163.851 346.495 158.47 359.584 152.936 372.609C150.135 379.303 146.108 388.304 143.78 394.982L161.023 394.776L164.867 385.206L172.964 385.286L191.049 385.001C192.272 388.231 193.496 391.62 194.89 394.765L211.996 394.945C204.423 377.226 197.587 359.2 189.964 341.501C188.786 338.766 187.733 335.972 186.302 333.357C184.508 333.127 183.997 333.158 182.172 333.259ZM487.664 333.545C487.698 353.249 488.245 375.517 487.654 395.046C496.54 395.025 505.425 395.006 514.311 395.045C523.159 395.084 535.064 395.452 541.806 388.704C542.695 387.81 543.516 386.852 544.264 385.836C548.918 375.455 544.279 367.82 534.273 363.596C549.784 352.482 542.555 335.835 525.045 334.192C512.864 333.05 499.948 333.537 487.664 333.545ZM241.908 344.601C236.353 346.215 234.829 347.024 230.185 350.489L230.468 345.209L214.804 345.478C214.705 361.892 214.952 378.453 215.024 394.886L230.57 395.053C230.644 385.632 228.323 365.503 235.783 359.535C254.657 352.161 250.027 377.269 250.709 387.777C250.856 390.041 250.709 392.406 250.857 394.688C255.841 394.733 261.378 394.902 266.317 394.706L266.479 377.434C266.55 368.225 267.638 357.415 260.539 350.291C255.6 345.335 248.663 343.964 241.908 344.601ZM290.445 344.623C283.377 346.537 277.854 349.16 274.108 356.032C271.356 361.199 270.871 367.276 272.769 372.814C276.932 385.2 289.521 388.73 301.266 386.6C303.862 386.129 308.431 382.281 309.403 382.57C311.847 399.679 288.322 394.069 279.167 389.971L274.863 398.812L274.358 400.745C276.411 403.471 286.12 405.138 289.487 405.689C304.242 408.103 322.926 404.431 325.001 386.556C325.596 381.43 325.274 375.817 325.228 370.556C325.093 362.04 325.084 353.522 325.203 345.006C322.375 344.985 311.835 344.508 310.021 345.799L309.882 348.352C308.248 348.826 304.237 345.695 301.276 345.021C296.986 344.043 294.742 344.361 290.445 344.623ZM353.567 344.608C337.936 348.265 328.175 359.92 332.194 376.383C333.784 382.965 338.05 388.584 343.963 391.884C351.218 395.974 360.739 396.771 368.702 394.34C374.26 392.643 376.542 390.395 380.881 387.094L374.874 380.889C374.342 380.408 373.344 379.213 372.736 379.421C363.056 382.745 352.624 387.358 346.842 374.51C359.029 374.631 371.217 374.686 383.405 374.673C383.452 369.662 383.629 365.338 381.928 360.498C378.14 349.713 368.048 344.165 356.95 344.446C355.821 344.478 354.693 344.532 353.567 344.608ZM433.138 344.593C430.564 345.19 428.568 345.709 426.075 346.654C406.432 354.103 405.579 382.795 423.843 392.464C430.358 395.912 436.381 396.59 443.706 395.658C477.987 386.409 470.804 341.028 433.138 344.593ZM578.352 344.601C572.673 346.552 571.042 347.389 566.886 352.028L566.835 345.218C561.962 345.199 556.823 345.094 551.974 345.23L551.992 394.015L552.513 394.805C556.313 395.298 563.891 395.07 567.992 395.062C567.764 379.852 562.827 360.648 582.49 359.442C582.513 355.539 583.355 347.759 581.751 344.885C580.434 344.245 579.81 344.454 578.352 344.601ZM830.74 344.646C798.631 349.381 804.111 398.74 835.845 395.834C839.323 395.515 845.097 391.758 847.65 389.523C848.126 390.353 848.032 389.899 847.881 390.897C848.049 393.61 847.572 393.392 849.007 394.885C852.879 395.998 858.946 395.216 863.767 395.417L863.762 345.292L848.523 345.356L848.444 352.124C842.646 346.282 839.299 344.42 830.74 344.646ZM587.523 345.246C587.259 348.694 587.196 352.326 587.255 355.789C587.48 368.914 587.017 382.238 587.433 395.346C592.288 394.824 598.319 395.003 603.286 395.01C603.614 378.476 603.261 361.818 603.515 345.28L587.523 345.246ZM612.196 345.147C612.131 361.796 612.202 378.445 612.407 395.093L628.475 395.073C628.442 385.822 627.875 375.131 629.05 365.93C629.793 360.113 639.612 355.434 644.137 360.236C648.005 364.125 647.09 375.09 647.048 380.25C647.067 385.137 647.008 390.252 647.121 395.116L663.243 395.18C663.387 384.504 664.261 371.226 662.621 360.877C660.931 350.206 651.069 344.15 640.962 344.825C635.536 344.86 630.627 349.907 628.059 349.86C627.643 348.637 627.573 348.177 627.348 346.895C624.973 343.659 616.334 345.214 612.196 345.147ZM688.172 345.065C666.873 350.082 662.182 373.4 681.033 385.224C689.149 390.314 700.815 388.792 707.752 381.604C707.242 393.345 701.21 394.855 690.154 394.155C685.138 393.838 680.702 392.143 676.192 390.006C675.207 392.854 674.299 395.707 673.006 398.428L672.477 400.015C675.953 406.598 718.916 411.462 721.559 390.442C723.539 374.702 722.841 361.062 722.796 345.247C719.513 345.176 710.541 344.469 708.103 346.209C707.559 346.598 707.536 348.364 707.421 349.26C705.967 349.082 703.92 347.926 702.528 347.238C697.838 344.919 693.305 344.598 688.172 345.065ZM764.533 345.196C764.374 352.914 764.277 363.295 764.518 370.901C764.972 385.221 747.814 384.832 746.734 374.052C745.883 365.559 746.593 354.302 746.55 345.429L730.798 345.39C730.674 352.95 730.392 374.398 731.634 380.997C735.205 397.919 755.293 401.323 765.448 388.364L765.477 395.16C770.476 395.11 775.474 395.086 780.473 395.087L780.484 345.191L764.533 345.196ZM304.93 420.224C253.132 421.96 204.149 444.216 168.77 482.089C130.293 523.711 112.23 578.044 114.553 634.339C116.789 686.929 139.721 736.504 178.351 772.259C201.825 794.099 230.743 809.218 262.073 816.032C288.922 821.788 321.218 820.406 349.026 820.416L462.474 820.156L640.255 820.407L694.873 820.452C705.814 820.46 716.739 820.563 727.676 820.212C779.711 818.544 826.087 796.43 860.868 757.762C931.912 678.779 926.162 546.405 846.96 475.029C842.098 470.674 837.021 466.566 831.747 462.719C808.561 446.6 785.493 436.059 757.619 430.51C739.305 426.864 723.733 427.579 705.276 427.6L651.223 427.864L479.113 427.53C483.823 457.782 501.887 482.888 526.275 500.628C541.43 511.551 558.787 519.032 577.135 522.548C592.005 525.401 611.252 524.752 626.84 524.799L699.068 524.826C714.725 524.895 732.944 524.068 747.622 529.227C834.812 559.87 825.763 706.394 733.832 723.464C724.731 725.154 713.724 724.58 704.452 724.569L665.936 724.529L511.987 724.648L512.276 657.255C512.455 637.82 513.074 618.246 511.156 598.909C506.73 553.603 486.888 511.189 454.946 478.755C416.543 440.092 366.658 420.161 312.339 420.1C309.868 420.089 307.398 420.13 304.93 420.224Z"/><path d="M597.649 340.481C584.723 342.275 581.674 330.02 593.048 326.1C605.394 325.645 609.087 336.57 597.649 340.481Z"/><path d="M788.098 395.108C788.073 388.388 787.281 334.445 788.349 331.733C793.544 331.776 798.739 331.772 803.934 331.723L803.859 395.194L788.098 395.108Z"/><path d="M389.238 395.501C389.539 374.591 389.112 353.298 389.243 332.305C394.363 332.166 399.986 332.312 405.144 332.339C405.286 353.335 405.241 374.331 405.009 395.326C402.342 395.695 392.45 395.503 389.238 395.501Z"/><path d="M169.077 333.344L182.172 333.259C183.997 333.158 184.508 333.127 186.302 333.357C187.733 335.972 188.786 338.766 189.964 341.501C197.587 359.2 204.423 377.226 211.996 394.945L194.89 394.765C193.496 391.62 192.272 388.231 191.049 385.001L172.964 385.286L164.867 385.206L161.023 394.776L143.78 394.982C146.108 388.304 150.135 379.303 152.936 372.609C158.47 359.584 163.851 346.495 169.077 333.344ZM177.389 350.318L169.644 371.97L178.787 371.984L186.036 371.937C184.932 368.987 178.736 351.484 177.389 350.318Z"/><path d="M487.654 395.046C488.245 375.517 487.698 353.249 487.664 333.545C499.948 333.537 512.864 333.05 525.045 334.192C542.555 335.835 549.784 352.482 534.273 363.596C544.279 367.82 548.918 375.455 544.264 385.836C543.516 386.852 542.695 387.81 541.806 388.704C535.064 395.452 523.159 395.084 514.311 395.045C505.425 395.006 496.54 395.025 487.654 395.046ZM503.997 346.662C503.977 350.47 503.978 354.279 503.999 358.088C509.868 358.127 519.638 358.701 524.941 356.971C532.074 344.214 510.735 346.601 503.997 346.662ZM503.766 370.367L503.794 381.975C509.772 381.943 522.802 382.505 527.703 380.292C538.005 367.232 509.813 370.269 503.766 370.367Z"/><path d="M230.185 350.489C234.829 347.024 236.353 346.215 241.908 344.601C248.663 343.964 255.6 345.335 260.539 350.291C267.638 357.415 266.55 368.225 266.479 377.434L266.317 394.706C261.378 394.902 255.841 394.733 250.857 394.688C250.709 392.406 250.856 390.041 250.709 387.777C250.027 377.269 254.657 352.161 235.783 359.535C228.323 365.503 230.644 385.632 230.57 395.053L215.024 394.886C214.952 378.453 214.705 361.892 214.804 345.478L230.468 345.209L230.185 350.489Z"/><path d="M279.167 389.971C288.322 394.069 311.847 399.679 309.403 382.57C308.431 382.281 303.862 386.129 301.266 386.6C289.521 388.73 276.932 385.2 272.769 372.814C270.871 367.276 271.356 361.199 274.108 356.032C277.854 349.16 283.377 346.537 290.445 344.623C294.742 344.361 296.986 344.043 301.276 345.021C304.237 345.695 308.248 348.826 309.882 348.352L310.021 345.799C311.835 344.508 322.375 344.985 325.203 345.006C325.084 353.522 325.093 362.04 325.228 370.556C325.274 375.817 325.596 381.43 325.001 386.556C322.926 404.431 304.242 408.103 289.487 405.689C286.12 405.138 276.411 403.471 274.358 400.745L274.863 398.812L279.167 389.971ZM297.41 356.63C293.81 357.336 290.852 358.083 288.76 361.438C287.524 363.402 287.159 365.79 287.751 368.034C289.223 373.741 294.474 375.334 299.733 374.993C313.509 370.686 312.148 356.728 297.41 356.63Z"/><path d="M380.881 387.094C376.542 390.395 374.26 392.643 368.702 394.34C360.739 396.771 351.218 395.974 343.963 391.884C338.05 388.584 333.784 382.965 332.194 376.383C328.175 359.92 337.936 348.265 353.567 344.608C354.693 344.532 355.821 344.478 356.95 344.446C368.048 344.165 378.14 349.713 381.928 360.498C383.629 365.338 383.452 369.662 383.405 374.673C371.217 374.686 359.029 374.631 346.842 374.51C352.624 387.358 363.056 382.745 372.736 379.421C373.344 379.213 374.342 380.408 374.874 380.889L380.881 387.094ZM356.76 356.058C353.341 356.909 347.046 360.504 346.863 364.363L347.574 365.328C351.354 365.803 356.507 365.383 360.424 365.36C362.374 365.397 367.046 365.748 368.54 365.002C369.244 361.164 363.138 357.002 359.633 356.395C358.682 356.231 357.723 356.119 356.76 356.058Z"/><path d="M443.706 395.658C436.381 396.59 430.358 395.912 423.843 392.464C405.579 382.795 406.432 354.103 426.075 346.654C428.568 345.709 430.564 345.19 433.138 344.593C470.804 341.028 477.987 386.409 443.706 395.658ZM435.072 357.558C421.184 363.721 423.732 383.829 440.919 382.339C454.523 375.748 451.814 356.519 435.072 357.558Z"/><path d="M566.886 352.028C571.042 347.389 572.673 346.552 578.352 344.601C579.81 344.454 580.434 344.245 581.751 344.885C583.355 347.759 582.513 355.539 582.49 359.442C562.827 360.648 567.764 379.852 567.992 395.062C563.891 395.07 556.313 395.298 552.513 394.805L551.992 394.015L551.974 345.23C556.823 345.094 561.962 345.199 566.835 345.218L566.886 352.028Z"/><path d="M847.881 390.897C848.032 389.899 848.126 390.353 847.65 389.523C845.097 391.758 839.323 395.515 835.845 395.834C804.111 398.74 798.631 349.381 830.74 344.646C839.299 344.42 842.646 346.282 848.444 352.124L848.523 345.356L863.762 345.292L863.767 395.417C858.946 395.216 852.879 395.998 849.007 394.885C847.572 393.392 848.049 393.61 847.881 390.897ZM835.089 358.385C828.664 359.484 824.308 365.532 825.302 371.974C826.296 378.416 832.274 382.869 838.731 381.979C843.001 381.39 846.623 378.545 848.205 374.535C849.787 370.525 849.085 365.973 846.367 362.627C843.649 359.28 839.338 357.659 835.089 358.385Z"/><path d="M587.433 395.346C587.017 382.238 587.48 368.914 587.255 355.789C587.196 352.326 587.259 348.694 587.523 345.246L603.515 345.28C603.261 361.818 603.614 378.476 603.286 395.01C598.319 395.003 592.288 394.824 587.433 395.346Z"/><path d="M612.407 395.093C612.202 378.445 612.131 361.796 612.196 345.147C616.334 345.214 624.973 343.659 627.348 346.895C627.573 348.177 627.643 348.637 628.059 349.86C630.627 349.907 635.536 344.86 640.962 344.825C651.069 344.15 660.931 350.206 662.621 360.877C664.261 371.226 663.387 384.504 663.243 395.18L647.121 395.116C647.008 390.252 647.067 385.137 647.048 380.25C647.09 375.09 648.005 364.125 644.137 360.236C639.612 355.434 629.793 360.113 629.05 365.93C627.875 375.131 628.442 385.822 628.475 395.073L612.407 395.093Z"/><path d="M707.752 381.604C700.815 388.792 689.149 390.314 681.033 385.224C662.182 373.4 666.873 350.082 688.172 345.065C693.305 344.598 697.838 344.919 702.528 347.238C703.92 347.926 705.967 349.082 707.421 349.26C707.536 348.364 707.559 346.598 708.103 346.209C710.541 344.469 719.513 345.176 722.796 345.247C722.841 361.062 723.539 374.702 721.559 390.442C718.916 411.462 675.953 406.598 672.477 400.015L673.006 398.428C674.299 395.707 675.207 392.854 676.192 390.006C680.702 392.143 685.138 393.838 690.154 394.155C701.21 394.855 707.242 393.345 707.752 381.604ZM693.115 357.114C689.788 358.406 687.569 359.292 685.95 362.758C684.868 365.039 684.828 367.677 685.84 369.99C688.311 375.579 694.603 375.64 699.751 374.487C713.661 368.76 707.918 355.514 693.115 357.114Z"/><path d="M746.55 345.429C746.593 354.302 745.883 365.559 746.734 374.052C747.814 384.832 764.972 385.221 764.518 370.901C764.277 363.295 764.374 352.914 764.533 345.196L780.484 345.191L780.473 395.087C775.474 395.086 770.476 395.11 765.477 395.16L765.448 388.364C755.293 401.323 735.205 397.919 731.634 380.997C730.392 374.398 730.674 352.95 730.798 345.39L746.55 345.429Z"/><path fill="#E1E1E1" d="M503.999 358.088C503.978 354.279 503.977 350.47 503.997 346.662C510.735 346.601 532.074 344.214 524.941 356.971C519.638 358.701 509.868 358.127 503.999 358.088Z"/><path fill="#E1E1E1" d="M169.644 371.97L177.389 350.318C178.736 351.484 184.932 368.987 186.036 371.937L178.787 371.984L169.644 371.97Z"/><path fill="#E1E1E1" d="M360.424 365.36C356.507 365.383 351.354 365.803 347.574 365.328L346.863 364.363C347.046 360.504 353.341 356.909 356.76 356.058C357.723 356.119 358.682 356.231 359.633 356.395C363.138 357.002 369.244 361.164 368.54 365.002C367.046 365.748 362.374 365.397 360.424 365.36Z"/><path fill="#E1E1E1" d="M299.733 374.993C294.474 375.334 289.223 373.741 287.751 368.034C287.159 365.79 287.524 363.402 288.76 361.438C290.852 358.083 293.81 357.336 297.41 356.63C312.148 356.728 313.509 370.686 299.733 374.993Z"/><path fill="#E1E1E1" d="M699.751 374.487C694.603 375.64 688.311 375.579 685.84 369.99C684.828 367.677 684.868 365.039 685.95 362.758C687.569 359.292 689.788 358.406 693.115 357.114C707.918 355.514 713.661 368.76 699.751 374.487Z"/><path fill="#E1E1E1" d="M440.919 382.339C423.732 383.829 421.184 363.721 435.072 357.558C451.814 356.519 454.523 375.748 440.919 382.339Z"/><path fill="#E1E1E1" d="M838.731 381.979C832.274 382.869 826.296 378.416 825.302 371.974C824.308 365.532 828.664 359.484 835.089 358.385C839.338 357.659 843.649 359.28 846.367 362.627C849.085 365.973 849.787 370.525 848.205 374.535C846.623 378.545 843.001 381.39 838.731 381.979Z"/><path fill="#E1E1E1" d="M503.794 381.975L503.766 370.367C509.813 370.269 538.005 367.232 527.703 380.292C522.802 382.505 509.772 381.943 503.794 381.975Z"/><path d="M831.747 462.719C837.021 466.566 842.098 470.674 846.96 475.029C926.162 546.405 931.912 678.779 860.868 757.762C826.087 796.43 779.711 818.544 727.676 820.212C716.739 820.563 705.814 820.46 694.873 820.452L640.255 820.407L462.474 820.156L349.026 820.416C321.218 820.406 288.922 821.788 262.073 816.032C230.743 809.218 201.825 794.099 178.351 772.259C139.721 736.504 116.789 686.929 114.553 634.339C112.23 578.044 130.293 523.711 168.77 482.089C204.149 444.216 253.132 421.96 304.93 420.224C307.398 420.13 309.868 420.089 312.339 420.1C366.658 420.161 416.543 440.092 454.946 478.755C486.888 511.189 506.73 553.603 511.156 598.909C513.074 618.246 512.455 637.82 512.276 657.255L511.987 724.648L665.936 724.529L704.452 724.569C713.724 724.58 724.731 725.154 733.832 723.464C825.763 706.394 834.812 559.87 747.622 529.227C732.944 524.068 714.725 524.895 699.068 524.826L626.84 524.799C611.252 524.752 592.005 525.401 577.135 522.548C558.787 519.032 541.43 511.551 526.275 500.628C501.887 482.888 483.823 457.782 479.113 427.53L651.223 427.864L705.276 427.6C723.733 427.579 739.305 426.864 757.619 430.51C785.493 436.059 808.561 446.6 831.747 462.719ZM307.826 520.21C282.647 521.893 259.64 529.809 242.69 549.305C206.679 590.725 207.419 666.099 249.925 702.993C272.072 722.216 293.718 725.102 321.75 724.973L411.557 724.928L411.641 658.76C411.638 644.471 412.154 629.561 411.135 615.348C407.143 559.722 369.159 519.811 312.746 520.022C311.105 520.039 309.464 520.101 307.826 520.21Z"/><path fill="#E1E1E1" d="M321.75 724.973C293.718 725.102 272.072 722.216 249.925 702.993C207.419 666.099 206.679 590.725 242.69 549.305C259.64 529.809 282.647 521.893 307.826 520.21C309.464 520.101 311.105 520.039 312.746 520.022C369.159 519.811 407.143 559.722 411.135 615.348C412.154 629.561 411.638 644.471 411.641 658.76L411.557 724.928L321.75 724.973Z"/></svg>